<svg xmlns="http://www.w3.org/2000/svg" viewBox="0 0 512 512">
  <defs>
    <linearGradient id="brand" x1="74" y1="54" x2="438" y2="458" gradientUnits="userSpaceOnUse">
      <stop stop-color="#FF9B35"/>
      <stop offset="0.54" stop-color="#FF6B1A"/>
      <stop offset="1" stop-color="#F45112"/>
    </linearGradient>
    <linearGradient id="flow" x1="212" y1="265" x2="292" y2="488" gradientUnits="userSpaceOnUse">
      <stop stop-color="#FFFDF9"/>
      <stop offset="1" stop-color="#FFE5BB"/>
    </linearGradient>
  </defs>
  <rect width="512" height="512" rx="128" fill="url(#brand)"/>
  <path d="M153 170l31 25M144 235l36 28M154 306l-23 48" fill="none" stroke="#fff" stroke-linecap="round" stroke-width="31"/>
  <path d="M220 178h98c23 0 39 22 31 43-17 45-47 85-91 119" fill="none" stroke="#fff" stroke-linecap="round" stroke-linejoin="round" stroke-width="30"/>
  <path d="M237 220c20 44 51 80 92 108" fill="none" stroke="#fff" stroke-linecap="round" stroke-width="29"/>
  <path d="M314 354c-58 24-107 54-145 91 55-19 109-21 163-7-18-25-24-53-18-84Z" fill="url(#flow)"/>
  <path d="M368 101l10 27 27 10-27 10-10 27-10-27-27-10 27-10 10-27Z" fill="#FFF7ED"/>
  <circle cx="420" cy="177" r="12" fill="#FFF7ED"/>
</svg>
